<svg width="55" height="29" viewBox="0 0 55 29" fill="none" xmlns="http://www.w3.org/2000/svg">
<path fill-rule="evenodd" clip-rule="evenodd" d="M17.8595 12.2868C20.3432 10.5113 23.8838 8.95482 27.8119 8.07378C35.3168 6.38848 41.3946 7.8028 41.3853 11.2376C41.385 11.3572 41.3774 11.4776 41.3625 11.5988H41.4717H41.9864H42.7256H43.5725H44.0872H44.1948H45.4183H45.9353H46.2956V11.6012H48.1414L47.6548 12.9157H45.8067H45.4464H44.9317H43.7059H43.5982H43.0836H42.2367H42.0963H40.9389C40.828 13.1331 40.6974 13.3512 40.5482 13.5694H41.8554H41.9724H41.9794C42.1783 13.5742 42.3257 13.7382 42.3327 13.9236L42.3748 13.8071C42.4286 13.6645 42.5643 13.5694 42.714 13.5694H44.5762H44.6674H44.6908V13.5718H45.5611H47.4092L46.9226 14.8863H45.0745H44.4475H44.1995H44.0849H43.9445H42.5198C42.342 14.8863 42.1175 15.0337 42.0192 15.2143C41.9209 15.395 41.9864 15.5424 42.1642 15.5424H43.9445H43.9539V15.54H46.6793L46.1904 16.8545H43.7129H43.465H41.7619C41.5607 16.8545 41.4086 16.6905 41.4016 16.5003L41.3595 16.6168C41.3057 16.7594 41.17 16.8545 41.0203 16.8545H39.0692H39.0247H36.8911C34.4783 18.3909 31.2824 19.7141 27.7792 20.5008C20.2743 22.1861 14.1964 20.7694 14.2058 17.3394C14.2065 17.0008 14.2665 16.6555 14.3811 16.3063L13.8011 16.6786L13.5297 16.8545H13.125H12.6477H12.1705H8.84383H7.96186H7.48462L7.97356 15.54H8.4508H9.33043H12.6571H12.7951L14.4538 14.4775L15.0807 14.0734L13.5671 12.9134H9.46144H8.94442L9.43336 11.5989H9.94804H14.1146H14.6316L15.0433 11.915L16.2551 12.8421L16.592 13.0988L16.9921 12.8421L17.8595 12.2868ZM19.0629 11.5989H19.4508H23.3389H23.6197H23.8559H24.1367H28.0295H28.4974H28.5442C29.1524 11.568 29.6086 11.7938 29.6788 12.0981C29.6928 12.1575 29.7022 12.2621 29.6343 12.4095L29.6133 12.4689L29.5665 12.5949L29.4191 12.9895L29.3232 13.2438L29.1243 13.781L29.1056 13.8285C28.9489 14.1946 28.6073 14.8602 28.0833 14.9148C28.0739 14.9148 28.064 14.9154 28.054 14.916C28.0441 14.9166 28.0342 14.9172 28.0248 14.9172H27.8376H27.6739L27.7207 16.8022H25.9755L25.9263 14.8839H22.9857H21.8698H21.465H18.9244L19.776 15.5424H23.8793H23.9776L23.4886 16.8569H23.3927H19.1116H18.8028H18.7069L18.4799 16.681L17.2681 15.7492L16.854 15.433L16.3487 15.0432L15.7428 15.433L15.2492 15.7492L14.7522 16.0682C14.7303 16.201 14.7188 16.3332 14.7181 16.4647C14.7041 19.5405 20.569 21.0309 27.8213 19.7972C31.2144 19.2189 34.3095 18.1468 36.6441 16.8545H36.2993L36.7882 15.54H38.656C38.9315 15.3241 39.1855 15.105 39.4164 14.8839H38.7674H37.4854C37.2678 14.8839 37.1158 14.6605 37.193 14.4537L37.4456 13.7739L37.5228 13.5694L37.579 13.4149C37.586 13.5076 37.6538 13.5694 37.7685 13.5694H40.4931C40.6225 13.3514 40.7274 13.1332 40.806 12.9157H38.1216C37.9672 12.9157 37.7801 13.0251 37.6678 13.1724L37.7637 12.9157L37.9626 12.3809L38.1872 11.7724C38.2269 11.6678 38.3252 11.5988 38.4351 11.5988H38.7673H40.0025H40.5196H40.5944H40.7792H40.9466C40.4762 8.79239 34.8099 7.48123 27.8751 8.66091C24.4875 9.23801 21.3961 10.3086 19.0629 11.5989ZM39.4267 14.8839C39.2016 15.1043 38.9591 15.3232 38.7005 15.54H39.5137H39.9465H40.0447C40.2225 15.54 40.4471 15.3926 40.5454 15.212C40.6436 15.0313 40.5781 14.8839 40.4003 14.8839H39.9465H39.8014H39.757H39.7289H39.5417H39.4267ZM27.6411 13.2414C27.5873 13.4221 27.3978 13.5694 27.22 13.5694H26.9346H26.6375H23.4723H22.3564H21.9516H18.6507L19.6707 12.9134H22.8523H23.1354H23.3693H23.6501H27.1873H27.4189C27.5967 12.9134 27.6949 13.0608 27.6411 13.2414ZM31.4801 12.9133H34.657H35.1717L35.6606 11.5988H35.1436H31.969H31.7257H30.818C30.7408 11.5988 30.5256 11.6107 30.3174 11.7629C30.1466 11.8865 30.0647 12.0481 30.0203 12.1432C29.8495 12.5164 29.2623 14.0804 28.509 16.2221C28.4833 16.3386 28.4996 16.4218 28.516 16.4717C28.5955 16.7094 28.895 16.8663 29.2623 16.8544H30.0109H30.0179H33.7095L34.1985 15.5399H30.5045L31.4801 12.9133ZM36.0887 11.5988L34.1399 16.8544H35.8851L37.8339 11.5988H36.0887ZM8.70347 13.5695H13.387L12.9004 14.884H8.21453L8.70347 13.5695Z" fill="#FAFAFA"/>
</svg>
