<?xml version="1.0" standalone="yes"?>
<svg xmlns="http://www.w3.org/2000/svg" width="200" height="200">
<path style="fill:none; stroke:none;" d="M0 0L0 200L200 200L200 0L0 0z"/>
<path style="fill:#FAFAFA; stroke:none;" d="M98 92C83.783 92 66.0217 89.0938 52.1844 92.2778C45.8147 93.7435 44.0554 102.135 49.0586 106.196C54.3738 110.511 67.4726 108 74 108C87.981 108 104.079 110.228 117.83 107.741C126.042 106.256 132.36 101.96 140 100C145.416 78.8913 162.244 63.358 176.383 47.0363C186.367 35.5121 197.625 28.2639 194 12C178.524 8.55063 174.059 16.0045 162.964 25.6165C152.13 35.0013 141.489 45.302 130.255 54.2184C121.731 60.9833 112.007 61.73 104.383 70.3472C98.7403 76.7261 98 83.8924 98 92M180 60C159.639 70.6076 166 101.077 166 120L34 120L34 48C61.7077 48 90.3465 50.1158 117.96 47.9452C123.712 47.493 135.179 37.5873 136 32L59 32C49.3895 32 34.6809 29.2272 26.0147 33.8225C17.354 38.415 20 49.6971 20 58L20 120C20 126.177 17.7385 137.871 21.804 142.942C28.4831 151.273 44.6759 148 54 148L144 148C153.67 148 171.285 151.562 178.196 142.942C182.262 137.871 180 126.177 180 120L180 60z"/>
<path style="fill:none; stroke:none;" d="M114 92C116.475 91.6725 118.648 90.7838 121.075 90.2407C139.564 86.1033 120.035 67.3449 114.51 83.3256C113.59 85.9877 114 89.2264 114 92M96 128C93.1949 140.624 106.805 140.624 104 128L96 128z"/>
<path style="fill:#FAFAFA; stroke:none;" d="M60 160L58 166L58 167L58 168C64.2242 174.817 68.846 174 78 174L119 174C128.859 174 135.214 175.432 142 168L142 167L142 166L140 160L60 160z"/>
</svg>
