<?xml version="1.0" standalone="yes"?>
<svg xmlns="http://www.w3.org/2000/svg" width="200" height="200">
<path style="fill:none; stroke:none;" d="M0 0L0 200L200 200L200 0L0 0z"/>
<path style="fill:#FAFAFA; stroke:none;" d="M73 22L74 24C66.0249 24.0274 50.7428 29.7412 48 38L46 37L40 47L37 46L35 48L36 51L29 60L52 58L51 56L65 47L69 44L64 60L83 58C84.2727 50.226 91.6557 33.6874 101.917 36.3056C106.473 37.4681 109.37 44.0869 113 44L117 58L136 60L131 45L132 44L151.465 59.2353L171 60L163 46L160 47C158.947 43.1817 156.818 41.0529 153 40L154 37L152 35L149 36L142 28L137 29L138 26L126 24L127 22L73 22z"/>
<path style="fill:#FAFAFA; stroke:none;" d="M73 23L74 24L73 23M126 23L127 24L126 23M131 25L132 26L131 25M137 28L137 29L140 29L137 28M149.667 35.3333L150.333 35.6667L149.667 35.3333M47 37L48 38L47 37M152 37L153 38L152 37M153.333 38.6667L153.667 39.3333L153.333 38.6667M68 44L69 45L68 44M112 44L113 45L112 44M64 45L65 46L64 45M131 45L132 46L131 45M38.6667 46.3333L39.3333 46.6667L38.6667 46.3333M63 46L64 47L63 46M160.667 46.3333L161.333 46.6667L160.667 46.3333M37 47L38 48L37 47M162 47L163 48L162 47z"/>
<path style="fill:#FAFAFA; stroke:none;" d="M66 48L67 49L66 48z"/>
<path style="fill:#FAFAFA; stroke:none;" d="M35.3333 49.6667L35.6667 50.3333L35.3333 49.6667M31 55L32 56L31 55M51 56L52 57L51 56z"/>
<path style="fill:#FAFAFA; stroke:none;" d="M13 80C13.5973 88.9923 17.4191 97.5161 19.7199 106.075C20.7157 109.779 21.0619 115.542 23.8927 118.397C35.6973 130.301 39.9948 106.715 40 100L42 100L46 120L60 120L60 114L63 114L69 80L55 80L53 102L52 102L52 93L49 84L47 85L47 80L35 80C34.6394 85.5545 33.4977 93.4818 29 97L27 80L13 80M71 80L75 98L77 107L80 106L82 120L96 120L98 105L102 105L104 120L118 120L120 106L123 107L129 80L115 80L109 98L107 80L93 80L91 100L89 100L89 93C86.5115 89.7152 88.0644 85.9586 86.142 82.5725C83.7339 78.3312 75.0683 80 71 80M131 80L131 87L133 86L137 113L140 120L154 120L158 100L160 100C160.006 107.429 163.523 129.092 176.106 118.682C180.702 114.88 177.807 106.365 183 103L187 80L173 80L171 98C166.682 93.8794 165.379 85.8389 165 80L153 80L151 93L148 93L148 102L147 102L145 80L131 80z"/>
<path style="fill:#FAFAFA; stroke:none;" d="M47 84L48 85L47 84M113 84L114 85L113 84M67.6667 86.3333L68.3333 86.6667L67.6667 86.3333M113 86L114 87L113 86M132 86L133 87L132 86M88 95L89 96L88 95M51 96L52 97L51 96M75 96L76 97L75 96M124 97L125 98L124 97M148.333 98.6667L148.667 99.3333L148.333 98.6667M182.333 98.6667L182.667 99.3333L182.333 98.6667M122 104L123 105L122 104M78.6667 106.333L79.3333 106.667L78.6667 106.333M120.667 106.333L121.333 106.667L120.667 106.333M137.333 109.667L137.667 110.333L137.333 109.667M22 117L23 118L22 117z"/>
<path style="fill:#FAFAFA; stroke:none;" d="M29 140L36 149L35 152L46 163L48 162L48 165L51 164C52.6458 171.719 67.1217 176 74 176L73 178C89.0804 178.068 105.927 182.838 122.083 178.306C126.834 176.973 136.791 176.67 138 171L143 172C146.005 165.457 158.647 155.931 165 152L164 149L171 140C160.184 140 146.09 137.92 142 151L132 156L136 140L117 142C115.384 149.22 111.412 159.117 104.381 162.562C95.0046 167.157 85.0481 154.647 85 146L83 142L64 140L68 156L65 153L58 148L56 149C52.7825 137.331 38.2914 140 29 140z"/>
<path style="fill:#FAFAFA; stroke:none;" d="M144 146L145 147L144 146M56 148L57 149L56 148M84 148L85 149L84 148M35.3333 149.667L35.6667 150.333L35.3333 149.667M164.333 149.667L164.667 150.333L164.333 149.667z"/>
<path style="fill:#FAFAFA; stroke:none;" d="M133 151L134 152L133 151z"/>
<path style="fill:#FAFAFA; stroke:none;" d="M63 153L64 154L63 153M64 154L65 155L64 154M111 155L112 156L111 155M47 162L48 163L47 162M151 162L152 163L151 162z"/>
<path style="fill:#FAFAFA; stroke:none;" d="M153 162L154 163L153 162z"/>
<path style="fill:#FAFAFA; stroke:none;" d="M49.6667 164.333L50.3333 164.667L49.6667 164.333M138.667 171.333L139.333 171.667L138.667 171.333M73 176L74 177L73 176z"/>
</svg>
