<?xml version="1.0" standalone="yes"?>
<svg xmlns="http://www.w3.org/2000/svg" width="200" height="200">
<path style="fill:#FAFAFA; stroke:none;" d="M16 32L16 168L116 168C117.58 160.917 119.929 154.552 128 154L128 150C118.057 149.319 113.534 135.875 123.311 130.825C133.768 125.424 148.6 128 160 128C159.97 119.311 144.43 98.0956 134.181 100.282C130.2 101.132 127.076 105.591 124.333 108.333C116.749 115.918 104.747 124.373 100 134L99 134L98 134C94.1641 123.05 113.286 120.395 111.356 111.232C110.128 105.4 99.7238 98.5428 95.6713 94.3295C89.7721 88.1963 82.8361 74.2062 73.8194 72.2824C68.2973 71.1042 61.4523 77.4736 57.6705 81.0177C46.5464 91.4428 36.3506 103.055 24 112L24 40L176 40L176 112L184 112L184 32L16 32M132.519 60.8434C126.681 63.6844 126.037 76.3007 129.804 80.9414C133.103 85.0053 143.002 85.3368 147.481 83.1566C153.319 80.3156 153.963 67.6993 150.196 63.0586C146.897 58.9948 136.998 58.6632 132.519 60.8434M124 136L124 144L163.96 144.133L176 147.991L200 144L200 136L176 132.009L163.96 135.867L124 136M124 160L124 168L140.907 168.278L152 171.991L164.04 168.133L200 168L200 160L164.04 159.867L152 156.009L140.907 159.722L124 160M124 184L124 192L163.96 192.133L176 195.991L200 192L200 184L176 180.009L163.96 183.867L124 184z"/>
</svg>
