<svg width="52" height="55" viewBox="0 0 52 55" fill="none" xmlns="http://www.w3.org/2000/svg">
<g clip-path="url(#clip0_1295_2737)">
<path d="M40.125 2.125H6.875C4.25165 2.125 2.125 4.25165 2.125 6.875V40.125C2.125 42.7484 4.25165 44.875 6.875 44.875H40.125C42.7484 44.875 44.875 42.7484 44.875 40.125V6.875C44.875 4.25165 42.7484 2.125 40.125 2.125Z" stroke="#FAFAFA" stroke-width="2" stroke-linecap="round" stroke-linejoin="round"/>
<path d="M15.1875 18.75C17.155 18.75 18.75 17.155 18.75 15.1875C18.75 13.22 17.155 11.625 15.1875 11.625C13.22 11.625 11.625 13.22 11.625 15.1875C11.625 17.155 13.22 18.75 15.1875 18.75Z" stroke="#FAFAFA" stroke-width="2" stroke-linecap="round" stroke-linejoin="round"/>
<path d="M44.875 30.625L33 18.75L6.875 44.875" stroke="#FAFAFA" stroke-width="2" stroke-linecap="round" stroke-linejoin="round"/>
<g clip-path="url(#clip1_1295_2737)">
<path fill-rule="evenodd" clip-rule="evenodd" d="M50.5 34C50.5 34.8284 49.8284 35.5 49 35.5L42 35.5C41.1716 35.5 40.5 34.8284 40.5 34C40.5 33.1716 41.1716 32.5 42 32.5L49 32.5C49.8284 32.5 50.5 33.1716 50.5 34ZM36.5 35.5L36.5 37C36.5 37.8284 37.1716 38.5 38 38.5C38.8284 38.5 39.5 37.8284 39.5 37L39.5 34L39.5 31C39.5 30.1716 38.8284 29.5 38 29.5C37.1716 29.5 36.5 30.1716 36.5 31L36.5 32.5L31 32.5C30.1716 32.5 29.5 33.1716 29.5 34C29.5 34.8284 30.1716 35.5 31 35.5L36.5 35.5ZM40 43.5C40.8284 43.5 41.5 42.8284 41.5 42C41.5 41.1716 40.8284 40.5 40 40.5L31 40.5C30.1716 40.5 29.5 41.1716 29.5 42C29.5 42.8284 30.1716 43.5 31 43.5L40 43.5ZM50.5 42C50.5 42.8284 49.8284 43.5 49 43.5L45.5 43.5L45.5 45C45.5 45.8284 44.8284 46.5 44 46.5C43.1716 46.5 42.5 45.8284 42.5 45L42.5 42L42.5 39C42.5 38.1716 43.1716 37.5 44 37.5C44.8284 37.5 45.5 38.1716 45.5 39L45.5 40.5L49 40.5C49.8284 40.5 50.5 41.1716 50.5 42ZM37.5 50L37.5 53C37.5 53.8284 36.8284 54.5 36 54.5C35.1716 54.5 34.5 53.8284 34.5 53L34.5 51.5L31 51.5C30.1716 51.5 29.5 50.8284 29.5 50C29.5 49.1716 30.1716 48.5 31 48.5L34.5 48.5L34.5 47C34.5 46.1716 35.1716 45.5 36 45.5C36.8284 45.5 37.5 46.1716 37.5 47L37.5 50ZM50.5 50C50.5 50.8284 49.8284 51.5 49 51.5L40 51.5C39.1716 51.5 38.5 50.8284 38.5 50C38.5 49.1716 39.1716 48.5 40 48.5L49 48.5C49.8284 48.5 50.5 49.1716 50.5 50Z" fill="#FAFAFA"/>
<path d="M36.5 35.5L37 35.5C37 35.2239 36.7761 35 36.5 35L36.5 35.5ZM36.5 31L37 31L36.5 31ZM36.5 32.5L36.5 33C36.7761 33 37 32.7761 37 32.5L36.5 32.5ZM45.5 43.5L45.5 43C45.2239 43 45 43.2239 45 43.5L45.5 43.5ZM45.5 40.5L45 40.5C45 40.7761 45.2239 41 45.5 41L45.5 40.5ZM37.5 50L38 50L37.5 50ZM34.5 51.5L35 51.5C35 51.2239 34.7761 51 34.5 51L34.5 51.5ZM34.5 48.5L34.5 49C34.6326 49 34.7598 48.9473 34.8536 48.8536C34.9473 48.7598 35 48.6326 35 48.5L34.5 48.5ZM34.5 47L34 47L34.5 47ZM37.5 47L37 47L37.5 47ZM49 36C50.1046 36 51 35.1046 51 34L50 34C50 34.5523 49.5523 35 49 35L49 36ZM42 36L49 36L49 35L42 35L42 36ZM40 34C40 35.1046 40.8954 36 42 36L42 35C41.4477 35 41 34.5523 41 34L40 34ZM42 32C40.8954 32 40 32.8954 40 34L41 34C41 33.4477 41.4477 33 42 33L42 32ZM49 32L42 32L42 33L49 33L49 32ZM51 34C51 32.8954 50.1046 32 49 32L49 33C49.5523 33 50 33.4477 50 34L51 34ZM37 37L37 35.5L36 35.5L36 37L37 37ZM38 38C37.4477 38 37 37.5523 37 37L36 37C36 38.1046 36.8954 39 38 39L38 38ZM39 37C39 37.5523 38.5523 38 38 38L38 39C39.1046 39 40 38.1046 40 37L39 37ZM39 34L39 37L40 37L40 34L39 34ZM39 31L39 34L40 34L40 31L39 31ZM38 30C38.5523 30 39 30.4477 39 31L40 31C40 29.8954 39.1046 29 38 29L38 30ZM37 31C37 30.4477 37.4477 30 38 30L38 29C36.8954 29 36 29.8954 36 31L37 31ZM37 32.5L37 31L36 31L36 32.5L37 32.5ZM31 33L36.5 33L36.5 32L31 32L31 33ZM30 34C30 33.4477 30.4477 33 31 33L31 32C29.8954 32 29 32.8954 29 34L30 34ZM31 35C30.4477 35 30 34.5523 30 34L29 34C29 35.1046 29.8954 36 31 36L31 35ZM36.5 35L31 35L31 36L36.5 36L36.5 35ZM41 42C41 42.5523 40.5523 43 40 43L40 44C41.1046 44 42 43.1046 42 42L41 42ZM40 41C40.5523 41 41 41.4477 41 42L42 42C42 40.8954 41.1046 40 40 40L40 41ZM31 41L40 41L40 40L31 40L31 41ZM30 42C30 41.4477 30.4477 41 31 41L31 40C29.8954 40 29 40.8954 29 42L30 42ZM31 43C30.4477 43 30 42.5523 30 42L29 42C29 43.1046 29.8954 44 31 44L31 43ZM40 43L31 43L31 44L40 44L40 43ZM49 44C50.1046 44 51 43.1046 51 42L50 42C50 42.5523 49.5523 43 49 43L49 44ZM45.5 44L49 44L49 43L45.5 43L45.5 44ZM46 45L46 43.5L45 43.5L45 45L46 45ZM44 47C45.1046 47 46 46.1046 46 45L45 45C45 45.5523 44.5523 46 44 46L44 47ZM42 45C42 46.1046 42.8954 47 44 47L44 46C43.4477 46 43 45.5523 43 45L42 45ZM42 42L42 45L43 45L43 42L42 42ZM42 39L42 42L43 42L43 39L42 39ZM44 37C42.8954 37 42 37.8954 42 39L43 39C43 38.4477 43.4477 38 44 38L44 37ZM46 39C46 37.8954 45.1046 37 44 37L44 38C44.5523 38 45 38.4477 45 39L46 39ZM46 40.5L46 39L45 39L45 40.5L46 40.5ZM49 40L45.5 40L45.5 41L49 41L49 40ZM51 42C51 40.8954 50.1046 40 49 40L49 41C49.5523 41 50 41.4477 50 42L51 42ZM37 50L37 53L38 53L38 50L37 50ZM37 53C37 53.5523 36.5523 54 36 54L36 55C37.1046 55 38 54.1046 38 53L37 53ZM36 54C35.4477 54 35 53.5523 35 53L34 53C34 54.1046 34.8954 55 36 55L36 54ZM35 53L35 51.5L34 51.5L34 53L35 53ZM34.5 51L31 51L31 52L34.5 52L34.5 51ZM31 51C30.4477 51 30 50.5523 30 50L29 50C29 51.1046 29.8954 52 31 52L31 51ZM30 50C30 49.4477 30.4477 49 31 49L31 48C29.8954 48 29 48.8954 29 50L30 50ZM31 49L34.5 49L34.5 48L31 48L31 49ZM35 48.5L35 47L34 47L34 48.5L35 48.5ZM35 47C35 46.4477 35.4477 46 36 46L36 45C34.8954 45 34 45.8954 34 47L35 47ZM36 46C36.5523 46 37 46.4477 37 47L38 47C38 45.8954 37.1046 45 36 45L36 46ZM37 47L37 50L38 50L38 47L37 47ZM49 52C50.1046 52 51 51.1046 51 50L50 50C50 50.5523 49.5523 51 49 51L49 52ZM40 52L49 52L49 51L40 51L40 52ZM38 50C38 51.1046 38.8954 52 40 52L40 51C39.4477 51 39 50.5523 39 50L38 50ZM40 48C38.8954 48 38 48.8954 38 50L39 50C39 49.4477 39.4477 49 40 49L40 48ZM49 48L40 48L40 49L49 49L49 48ZM51 50C51 48.8954 50.1046 48 49 48L49 49C49.5523 49 50 49.4477 50 50L51 50Z" fill="#0D2734"/>
</g>
</g>
<defs>
<clipPath id="clip0_1295_2737">
<rect width="52" height="55" fill="white"/>
</clipPath>
<clipPath id="clip1_1295_2737">
<rect width="26" height="24" fill="white" transform="translate(52 29) rotate(90)"/>
</clipPath>
</defs>
</svg>
