<?xml version="1.0" standalone="yes"?>
<svg xmlns="http://www.w3.org/2000/svg" width="200" height="167">
<path style="fill:none; stroke:none;" d="M0 0L0 77L2 77C3.48018 65.449 16.318 52.7597 28 52L34 32C39.2259 31.2392 42.6669 26.7711 48.0394 26.1289C53.5949 25.4647 65.0651 29.2174 69.4715 27.0887C72.6721 25.5425 75.7029 19.631 78.3333 17C84.9935 10.3385 92.8672 4.78937 102.17 2.45911C138.359 -6.60616 168 21.2836 168 56C180.89 56.1427 196.282 68.8872 198 82L200 82L200 0L0 0z"/>
<path style="fill:#FAFAFA; stroke:none;" d="M34 32L28 52C-2.01144 52.8862 -6.92816 98.3291 7.22299 117.255C21.0519 135.749 45.7974 131 66 131C64.072 124.007 52.4595 113.185 46 110L46 109C53.4168 105.343 58.6359 97.5228 66.0139 93.2492C84.449 82.571 109.058 81.6945 128.386 90.4182C138.413 94.944 144.646 104.388 154 109L154 110C147.541 113.185 135.928 124.007 134 131C152.583 131 178.821 136.272 192.218 119.964C209.316 99.152 198.626 56.1051 168 56C168 24.5528 148.4 2 116 2C111.02 2 105.219 1.18752 100.424 2.72531C92.1986 5.36353 85.1006 9.57076 79 15.6667C76.3152 18.3494 72.1695 25.7798 68.7461 26.8835C63.118 28.698 53.4312 25.3496 47.0895 26.1289C42.0633 26.7465 38.7388 30.7841 34 32z"/>
<path style="fill:none; stroke:none;" d="M46 109L46 110C52.6856 114.842 62.6341 123.431 66 131C45.9402 131 4.07266 135.277 2 105L0 105L0 167L94 167C86.2586 146.796 113.741 146.796 106 167L200 167L200 107L198 107C195.976 136.567 153.383 131 134 131C137.366 123.431 147.314 114.842 154 110C134.141 85.9359 100.416 77.8198 71.6142 90.0494C61.1488 94.4932 54.8837 102.566 46 109z"/>
<path style="fill:#FAFAFA; stroke:none;" d="M84.4252 90.7106C74.9224 93.5236 66.3251 96.8278 58.9653 103.657C55.1071 107.236 52.4446 114.733 61 114.733C64.8035 114.733 67.6594 110.539 70.804 108.818C79.1674 104.242 91.1507 98.2857 100.925 99.3133C110.811 100.353 120.491 104.055 129.196 108.818C132.772 110.775 136.112 115.892 140.689 114.471C153.514 110.491 135.381 98.6911 130.804 96.2392C118.411 89.6003 98.0552 86.6759 84.4252 90.7106M74 131L75 131L76 131C86.6553 116.321 113.163 116.703 124 131L125 131C135.821 122.07 127.221 117.384 117.6 112.6C105.97 106.816 89.648 107.947 78.439 114.353C75.5124 116.025 68.2809 119.654 68.7878 123.859C69.0966 126.42 72.5328 128.974 74 131M88 145L89 145L90 145L98 139L99 139L100 139L110 145L111 145C126.911 131.869 101.09 127.03 90.439 130.728C87.7608 131.657 82.3627 134.333 82.7878 137.859C83.0966 140.42 86.5328 142.974 88 145M94.5725 151.858C85.563 156.972 95.4271 171.819 105.427 166.142C114.437 161.028 104.573 146.181 94.5725 151.858z"/>
</svg>
