<svg width="55" height="46" viewBox="0 0 55 46" fill="none" xmlns="http://www.w3.org/2000/svg">
<path fill-rule="evenodd" clip-rule="evenodd" d="M45.9996 14.1063C45.9999 14.0709 46 14.0355 46 14C46 6.26802 39.732 0 32 0C26.6986 0 22.0854 2.94666 19.709 7.29147C18.5089 6.47632 17.0601 6 15.5 6C11.3579 6 8 9.35786 8 13.5C8 13.7666 8.01391 14.03 8.04106 14.2895C3.42832 15.3963 0 19.5478 0 24.5C0 30.299 4.70101 35 10.5 35H44.5C50.299 35 55 30.299 55 24.5C55 19.2101 51.0882 14.834 45.9996 14.1063Z" fill="#FAFAFA"/>
<mask id="path-2-outside-1_1340_2688" maskUnits="userSpaceOnUse" x="9" y="21" width="33" height="25" fill="black">
<rect fill="white" x="9" y="21" width="33" height="25"/>
<path fill-rule="evenodd" clip-rule="evenodd" d="M12.3245 31.0831C11.8918 30.6504 11.8918 29.949 12.3245 29.5163C15.8565 25.9843 20.647 24 25.6421 24C30.6371 24 35.4276 25.9843 38.9597 29.5163C39.3923 29.949 39.3923 30.6504 38.9597 31.0831C38.527 31.5158 37.8255 31.5158 37.3929 31.0831C34.2764 27.9666 30.0495 26.2158 25.6421 26.2158C21.2347 26.2158 17.0078 27.9666 13.8913 31.0831C13.4586 31.5158 12.7571 31.5158 12.3245 31.0831ZM17.8082 36.5668C17.3755 36.1341 17.3755 35.4326 17.8082 35C19.8858 32.9223 22.7038 31.7551 25.642 31.7551C28.5803 31.7551 31.3982 32.9223 33.4759 35C33.9086 35.4326 33.9086 36.1341 33.4759 36.5668C33.0433 36.9994 32.3418 36.9994 31.9091 36.5668C30.247 34.9046 27.9926 33.9708 25.642 33.9708C23.2914 33.9708 21.0371 34.9046 19.3749 36.5668C18.9423 36.9994 18.2408 36.9994 17.8082 36.5668ZM24.0752 39.7004C23.2099 40.5657 23.2099 41.9687 24.0752 42.834C24.9405 43.6993 26.3435 43.6993 27.2088 42.834C28.0741 41.9687 28.0741 40.5657 27.2088 39.7004C26.3435 38.8351 24.9405 38.8351 24.0752 39.7004Z"/>
</mask>
<path fill-rule="evenodd" clip-rule="evenodd" d="M12.3245 31.0831C11.8918 30.6504 11.8918 29.949 12.3245 29.5163C15.8565 25.9843 20.647 24 25.6421 24C30.6371 24 35.4276 25.9843 38.9597 29.5163C39.3923 29.949 39.3923 30.6504 38.9597 31.0831C38.527 31.5158 37.8255 31.5158 37.3929 31.0831C34.2764 27.9666 30.0495 26.2158 25.6421 26.2158C21.2347 26.2158 17.0078 27.9666 13.8913 31.0831C13.4586 31.5158 12.7571 31.5158 12.3245 31.0831ZM17.8082 36.5668C17.3755 36.1341 17.3755 35.4326 17.8082 35C19.8858 32.9223 22.7038 31.7551 25.642 31.7551C28.5803 31.7551 31.3982 32.9223 33.4759 35C33.9086 35.4326 33.9086 36.1341 33.4759 36.5668C33.0433 36.9994 32.3418 36.9994 31.9091 36.5668C30.247 34.9046 27.9926 33.9708 25.642 33.9708C23.2914 33.9708 21.0371 34.9046 19.3749 36.5668C18.9423 36.9994 18.2408 36.9994 17.8082 36.5668ZM24.0752 39.7004C23.2099 40.5657 23.2099 41.9687 24.0752 42.834C24.9405 43.6993 26.3435 43.6993 27.2088 42.834C28.0741 41.9687 28.0741 40.5657 27.2088 39.7004C26.3435 38.8351 24.9405 38.8351 24.0752 39.7004Z" fill="#FAFAFA"/>
<path d="M12.3245 29.5163L13.8913 31.0831L12.3245 29.5163ZM12.3245 31.0831L10.7577 32.6499L12.3245 31.0831ZM25.6421 24L25.6421 26.2158L25.6421 26.2158L25.6421 24ZM38.9597 29.5163L40.5264 27.9496L40.5264 27.9495L38.9597 29.5163ZM38.9597 31.0831L40.5264 32.6499L40.5264 32.6499L38.9597 31.0831ZM37.3929 31.0831L35.8261 32.6499L35.8261 32.6499L37.3929 31.0831ZM25.6421 26.2158L25.6421 24L25.6421 24L25.6421 26.2158ZM13.8913 31.0831L15.458 32.6499L15.458 32.6499L13.8913 31.0831ZM17.8082 35L19.3749 36.5668L19.3749 36.5668L17.8082 35ZM17.8082 36.5668L19.3749 35L19.3749 35L17.8082 36.5668ZM25.642 31.7551L25.642 33.9708L25.642 33.9708L25.642 31.7551ZM33.4759 35L35.0427 33.4332L35.0427 33.4332L33.4759 35ZM33.4759 36.5668L35.0427 38.1335L35.0427 38.1335L33.4759 36.5668ZM31.9091 36.5668L30.3424 38.1335L30.3424 38.1335L31.9091 36.5668ZM19.3749 36.5668L17.8082 35L17.8082 35L19.3749 36.5668ZM24.0752 42.834L25.642 41.2672L25.642 41.2672L24.0752 42.834ZM24.0752 39.7004L25.642 41.2672L25.642 41.2672L24.0752 39.7004ZM27.2088 42.834L25.642 41.2672L25.642 41.2672L27.2088 42.834ZM10.7577 27.9495C9.45976 29.2475 9.45976 31.3519 10.7577 32.6499L13.8913 29.5163C14.3239 29.949 14.3239 30.6504 13.8913 31.0831L10.7577 27.9495ZM25.6421 21.7842C20.0594 21.7842 14.7053 24.002 10.7577 27.9495L13.8913 31.0831C17.0078 27.9666 21.2347 26.2158 25.6421 26.2158L25.6421 21.7842ZM40.5264 27.9495C36.5789 24.002 31.2248 21.7842 25.6421 21.7842L25.6421 26.2158C30.0495 26.2158 34.2764 27.9666 37.3929 31.0831L40.5264 27.9495ZM40.5264 32.6499C41.8244 31.3519 41.8244 29.2475 40.5264 27.9496L37.3929 31.0831C36.9602 30.6504 36.9602 29.949 37.3929 29.5163L40.5264 32.6499ZM35.8261 32.6499C37.1241 33.9478 39.2285 33.9478 40.5264 32.6499L37.3929 29.5163C37.8255 29.0837 38.527 29.0837 38.9597 29.5163L35.8261 32.6499ZM25.6421 28.4315C29.4618 28.4315 33.1251 29.9489 35.8261 32.6499L38.9597 29.5163C35.4276 25.9843 30.6371 24 25.6421 24L25.6421 28.4315ZM15.458 32.6499C18.159 29.9489 21.8223 28.4315 25.6421 28.4315L25.6421 24C20.647 24 15.8565 25.9843 12.3245 29.5163L15.458 32.6499ZM10.7577 32.6499C12.0557 33.9478 14.1601 33.9478 15.458 32.6499L12.3245 29.5163C12.7571 29.0837 13.4586 29.0837 13.8913 29.5163L10.7577 32.6499ZM16.2414 33.4332C14.9434 34.7312 14.9434 36.8356 16.2414 38.1335L19.3749 35C19.8076 35.4326 19.8076 36.1341 19.3749 36.5668L16.2414 33.4332ZM25.642 29.5393C22.1161 29.5393 18.7346 30.94 16.2414 33.4332L19.3749 36.5668C21.0371 34.9046 23.2914 33.9708 25.642 33.9708V29.5393ZM35.0427 33.4332C32.5495 30.94 29.168 29.5393 25.642 29.5393L25.642 33.9708C27.9927 33.9708 30.247 34.9046 31.9091 36.5668L35.0427 33.4332ZM35.0427 38.1335C36.3406 36.8356 36.3406 34.7312 35.0427 33.4332L31.9091 36.5668C31.4765 36.1341 31.4765 35.4326 31.9091 35L35.0427 38.1335ZM30.3424 38.1335C31.6403 39.4315 33.7447 39.4315 35.0427 38.1335L31.9091 35C32.3418 34.5673 33.0433 34.5673 33.4759 35L30.3424 38.1335ZM25.642 36.1866C27.405 36.1866 29.0958 36.8869 30.3424 38.1335L33.4759 35C31.3982 32.9223 28.5803 31.7551 25.642 31.7551V36.1866ZM20.9417 38.1335C22.1883 36.8869 23.8791 36.1866 25.642 36.1866V31.7551C22.7038 31.7551 19.8858 32.9223 17.8082 35L20.9417 38.1335ZM16.2414 38.1335C17.5393 39.4315 19.6437 39.4315 20.9417 38.1335L17.8082 35C18.2408 34.5673 18.9423 34.5673 19.3749 35L16.2414 38.1335ZM25.642 41.2672V41.2672L22.5084 38.1336C20.7778 39.8642 20.7778 42.6701 22.5084 44.4007L25.642 41.2672ZM25.642 41.2672H25.642L22.5084 44.4007C24.239 46.1313 27.0449 46.1313 28.7755 44.4007L25.642 41.2672ZM25.642 41.2672V41.2672L28.7755 44.4007C30.5061 42.6701 30.5061 39.8642 28.7755 38.1336L25.642 41.2672ZM25.642 41.2672H25.642L28.7755 38.1336C27.0449 36.403 24.239 36.403 22.5084 38.1336L25.642 41.2672Z" fill="#0D2734" mask="url(#path-2-outside-1_1340_2688)"/>
</svg>
