<?xml version="1.0" standalone="yes"?>
<svg xmlns="http://www.w3.org/2000/svg" width="200" height="200">
<path style="fill:none; stroke:none;" d="M0 0L0 200L200 200L200 0L0 0z"/>
<path style="fill:#FAFAFA; stroke:none;" d="M52.5185 12.8434C45.7569 16.1343 48 26.9219 48 33L48 91L48 156C48 163.583 45.4925 176.597 48.8434 183.481C52.3647 190.716 65.4852 188 72 188L125 188C131.343 188 141.694 189.973 147.481 187.157C154.243 183.866 152 173.078 152 167L152 109L152 44C152 36.4167 154.507 23.4031 151.157 16.5185C147.635 9.28354 134.515 12 128 12L75 12C68.657 12 58.3059 10.0266 52.5185 12.8434z"/>
<path style="fill:#527182; stroke:none;" d="M56 40L56 156L144 156L144 40L56 40z"/>
<path style="fill:#FAFAFA; stroke:none;" d="M88 62L84 84L116 84L112 64L106 64L106 68L94 68C93.4163 64.0294 91.9706 62.5837 88 62M72 108L80 108C80 103.188 82.872 78.5571 76 78.5571C69.128 78.5571 72 103.188 72 108M120 108L128 108C128 103.188 130.872 78.5571 124 78.5571C117.128 78.5571 120 103.188 120 108M84 88L84.1335 110.907L88 128L96 128L96 116L104 116L104 128L112 128L115.867 110.907L116 88L84 88z"/>
<path style="fill:#527182; stroke:none;" d="M88.5733 168.857C85.5322 170.578 86.2926 174.337 89.3441 175.486C93.5809 177.082 108.518 177.674 112.102 174.686C114.949 172.312 112.762 168.986 109.811 168.279C105.072 167.142 92.8755 166.422 88.5733 168.857z"/>
</svg>
