<svg width="36" height="49" viewBox="0 0 36 49" fill="none" xmlns="http://www.w3.org/2000/svg">
<path fill-rule="evenodd" clip-rule="evenodd" d="M6.64499 4.42999C5.42168 4.42999 4.42999 5.42168 4.42999 6.64499V42.0849C4.42999 43.3082 5.42168 44.2999 6.64499 44.2999H28.795C30.0183 44.2999 31.0099 43.3082 31.0099 42.0849V6.64499C31.0099 5.42168 30.0183 4.42999 28.795 4.42999H6.64499ZM0 6.64499C0 2.97506 2.97506 0 6.64499 0H28.795C32.4649 0 35.4399 2.97506 35.4399 6.64499V42.0849C35.4399 45.7549 32.4649 48.7299 28.795 48.7299H6.64499C2.97506 48.7299 0 45.7549 0 42.0849V6.64499ZM15.505 37.6549C15.505 36.4316 16.4967 35.4399 17.72 35.4399H17.7421C18.9654 35.4399 19.9571 36.4316 19.9571 37.6549C19.9571 38.8782 18.9654 39.8699 17.7421 39.8699H17.72C16.4967 39.8699 15.505 38.8782 15.505 37.6549ZM13.6877 14.1096C13.9033 13.9371 14.2179 13.972 14.3904 14.1877L16.0361 16.2448C16.5066 16.0829 17.0012 16 17.5 16C17.9988 16 18.4934 16.0829 18.9639 16.2448L20.6096 14.1877C20.7821 13.972 21.0967 13.9371 21.3123 14.1096C21.528 14.2821 21.5629 14.5967 21.3904 14.8124L19.8904 16.6874C20.1765 16.8668 20.4421 17.0782 20.682 17.318C21.0998 17.7359 21.4313 18.232 21.6575 18.7779C21.8836 19.3239 22 19.9091 22 20.5H17.5H13C13 19.9091 13.1164 19.3239 13.3425 18.7779C13.5687 18.232 13.9002 17.7359 14.318 17.318C14.5579 17.0782 14.8235 16.8668 15.1096 16.6874L13.6096 14.8124C13.4371 14.5967 13.472 14.2821 13.6877 14.1096ZM22 21V26C22 26.8885 21.6138 27.6868 21 28.2361V31C21 31.5523 20.5523 32 20 32C19.4477 32 19 31.5523 19 31V29H16V31C16 31.5523 15.5523 32 15 32C14.4477 32 14 31.5523 14 31V28.2361C13.3863 27.6868 13 26.8885 13 26V21H22ZM10 20C10 19.4477 10.4477 19 11 19C11.5523 19 12 19.4477 12 20V26C12 26.5523 11.5523 27 11 27C10.4477 27 10 26.5523 10 26V20ZM24 19C23.4477 19 23 19.4477 23 20V26C23 26.5523 23.4477 27 24 27C24.5523 27 25 26.5523 25 26V20C25 19.4477 24.5523 19 24 19Z" fill="#FAFAFA"/>
</svg>
