<svg width="45" height="47" viewBox="0 0 45 47" fill="none" xmlns="http://www.w3.org/2000/svg">
<g clip-path="url(#clip0_1295_2729)">
<path d="M14.333 44.875H30.6663" stroke="#FAFAFA" stroke-width="2" stroke-linecap="round" stroke-linejoin="round"/>
<path d="M22.5 36.7083V44.8749" stroke="#FAFAFA" stroke-width="2" stroke-linecap="round" stroke-linejoin="round"/>
<path d="M38.833 8.125H6.16634C3.91118 8.125 2.08301 9.95317 2.08301 12.2083V32.625C2.08301 34.8802 3.91118 36.7083 6.16634 36.7083H38.833C41.0882 36.7083 42.9163 34.8802 42.9163 32.625V12.2083C42.9163 9.95317 41.0882 8.125 38.833 8.125Z" stroke="#FAFAFA" stroke-width="2" stroke-linecap="round" stroke-linejoin="round"/>
<mask id="path-4-outside-1_1295_2729" maskUnits="userSpaceOnUse" x="5" y="0" width="35" height="33" fill="black">
<rect fill="white" x="5" width="35" height="33"/>
<path fill-rule="evenodd" clip-rule="evenodd" d="M30.1629 5.54657C30.4832 5.22627 30.9177 5.04633 31.3706 5.04633C31.5949 5.04633 31.817 5.0905 32.0242 5.17634C32.2315 5.26217 32.4197 5.38798 32.5783 5.54657C32.7369 5.70517 32.8628 5.89346 32.9486 6.10067C33.0344 6.30789 33.0786 6.52999 33.0786 6.75428C33.0786 6.97857 33.0344 7.20067 32.9486 7.40789C32.8628 7.6151 32.7369 7.80339 32.5783 7.96199L13.8371 26.7032L10.6166 27.5083L11.4217 24.2878L30.1629 5.54657ZM31.3706 2C30.1097 2 28.9005 2.5009 28.0089 3.3925L8.96932 22.432C8.77411 22.6272 8.63563 22.8718 8.56867 23.1397L7.04551 29.2323C6.91575 29.7514 7.06783 30.3004 7.44616 30.6788C7.82448 31.0571 8.37356 31.2092 8.89262 31.0794L14.9853 29.5562C15.2531 29.4893 15.4977 29.3508 15.6929 29.1556L34.7324 10.1161C35.1739 9.67459 35.5241 9.15048 35.763 8.57366C36.0019 7.99685 36.1249 7.37862 36.1249 6.75428C36.1249 6.12994 36.0019 5.51171 35.763 4.9349C35.5241 4.35808 35.1739 3.83397 34.7324 3.3925C34.2909 2.95102 33.7668 2.60082 33.19 2.3619C32.6132 2.12297 31.995 2 31.3706 2ZM22.2312 28.0787C21.39 28.0787 20.7081 28.7607 20.7081 29.6019C20.7081 30.4431 21.39 31.125 22.2312 31.125H35.9397C36.7809 31.125 37.4629 30.4431 37.4629 29.6019C37.4629 28.7607 36.7809 28.0787 35.9397 28.0787H22.2312Z"/>
</mask>
<path fill-rule="evenodd" clip-rule="evenodd" d="M30.1629 5.54657C30.4832 5.22627 30.9177 5.04633 31.3706 5.04633C31.5949 5.04633 31.817 5.0905 32.0242 5.17634C32.2315 5.26217 32.4197 5.38798 32.5783 5.54657C32.7369 5.70517 32.8628 5.89346 32.9486 6.10067C33.0344 6.30789 33.0786 6.52999 33.0786 6.75428C33.0786 6.97857 33.0344 7.20067 32.9486 7.40789C32.8628 7.6151 32.7369 7.80339 32.5783 7.96199L13.8371 26.7032L10.6166 27.5083L11.4217 24.2878L30.1629 5.54657ZM31.3706 2C30.1097 2 28.9005 2.5009 28.0089 3.3925L8.96932 22.432C8.77411 22.6272 8.63563 22.8718 8.56867 23.1397L7.04551 29.2323C6.91575 29.7514 7.06783 30.3004 7.44616 30.6788C7.82448 31.0571 8.37356 31.2092 8.89262 31.0794L14.9853 29.5562C15.2531 29.4893 15.4977 29.3508 15.6929 29.1556L34.7324 10.1161C35.1739 9.67459 35.5241 9.15048 35.763 8.57366C36.0019 7.99685 36.1249 7.37862 36.1249 6.75428C36.1249 6.12994 36.0019 5.51171 35.763 4.9349C35.5241 4.35808 35.1739 3.83397 34.7324 3.3925C34.2909 2.95102 33.7668 2.60082 33.19 2.3619C32.6132 2.12297 31.995 2 31.3706 2ZM22.2312 28.0787C21.39 28.0787 20.7081 28.7607 20.7081 29.6019C20.7081 30.4431 21.39 31.125 22.2312 31.125H35.9397C36.7809 31.125 37.4629 30.4431 37.4629 29.6019C37.4629 28.7607 36.7809 28.0787 35.9397 28.0787H22.2312Z" fill="#FAFAFA"/>
<path d="M30.1629 5.54657L28.8374 4.22098L28.8373 4.22099L30.1629 5.54657ZM32.0242 5.17634L32.7417 3.44437L32.7416 3.44437L32.0242 5.17634ZM32.5783 5.54657L33.9039 4.22099L33.9039 4.22098L32.5783 5.54657ZM32.9486 6.10067L34.6805 5.38327L34.6805 5.38327L32.9486 6.10067ZM32.9486 7.40789L34.6805 8.12529L34.6805 8.12528L32.9486 7.40789ZM32.5783 7.96199L33.9039 9.28757L33.9039 9.28757L32.5783 7.96199ZM13.8371 26.7032L14.2918 28.5219C14.6214 28.4395 14.9225 28.269 15.1627 28.0288L13.8371 26.7032ZM10.6166 27.5083L8.79789 27.0537C8.63818 27.6925 8.82537 28.3683 9.291 28.8339C9.75663 29.2996 10.4324 29.4867 11.0713 29.327L10.6166 27.5083ZM11.4217 24.2878L10.0961 22.9622C9.85588 23.2025 9.68544 23.5035 9.60303 23.8331L11.4217 24.2878ZM28.0089 3.3925L26.6833 2.06691L26.6833 2.06691L28.0089 3.3925ZM8.96932 22.432L7.64373 21.1064L7.64373 21.1065L8.96932 22.432ZM8.56867 23.1397L10.3874 23.5943L10.3874 23.5943L8.56867 23.1397ZM7.04551 29.2323L5.22682 28.7776L5.22682 28.7776L7.04551 29.2323ZM7.44616 30.6788L8.77174 29.3532L8.77174 29.3532L7.44616 30.6788ZM8.89262 31.0794L8.43794 29.2607L8.43794 29.2607L8.89262 31.0794ZM14.9853 29.5562L15.4399 31.3749L15.4399 31.3749L14.9853 29.5562ZM15.6929 29.1556L14.3673 27.83L14.3673 27.83L15.6929 29.1556ZM34.7324 10.1161L36.058 11.4416L36.058 11.4416L34.7324 10.1161ZM35.763 8.57366L37.495 9.29107L37.495 9.29106L35.763 8.57366ZM35.763 4.9349L37.495 4.21749L37.495 4.21749L35.763 4.9349ZM34.7324 3.3925L36.058 2.06691L36.058 2.06691L34.7324 3.3925ZM33.19 2.3619L32.4726 4.09386L32.4726 4.09386L33.19 2.3619ZM31.3706 3.17166C30.4205 3.17166 29.5092 3.54912 28.8374 4.22098L31.4885 6.87216C31.4573 6.90342 31.4149 6.92099 31.3706 6.92099V3.17166ZM32.7416 3.44437C32.307 3.26433 31.8411 3.17166 31.3706 3.17166V6.92099C31.3487 6.92099 31.3271 6.91668 31.3068 6.9083L32.7416 3.44437ZM33.9039 4.22098C33.5713 3.88831 33.1763 3.62442 32.7417 3.44437L31.3068 6.9083C31.2866 6.89992 31.2682 6.88764 31.2528 6.87217L33.9039 4.22098ZM34.6805 5.38327C34.5005 4.94861 34.2366 4.55367 33.9039 4.22099L31.2528 6.87216C31.2373 6.85668 31.225 6.8383 31.2166 6.81808L34.6805 5.38327ZM34.9533 6.75428C34.9533 6.2838 34.8606 5.81793 34.6805 5.38327L31.2166 6.81807C31.2082 6.79785 31.2039 6.77618 31.2039 6.75428H34.9533ZM34.6805 8.12528C34.8606 7.69063 34.9533 7.22476 34.9533 6.75428H31.2039C31.2039 6.73238 31.2082 6.71071 31.2166 6.69049L34.6805 8.12528ZM33.9039 9.28757C34.2366 8.95489 34.5005 8.55995 34.6805 8.12529L31.2166 6.69048C31.225 6.67026 31.2373 6.65188 31.2528 6.6364L33.9039 9.28757ZM15.1627 28.0288L33.9039 9.28757L31.2528 6.6364L12.5115 25.3776L15.1627 28.0288ZM11.0713 29.327L14.2918 28.5219L13.3825 24.8845L10.1619 25.6896L11.0713 29.327ZM9.60303 23.8331L8.79789 27.0537L12.4353 27.963L13.2404 24.7425L9.60303 23.8331ZM28.8373 4.22099L10.0961 22.9622L12.7473 25.6134L31.4885 6.87216L28.8373 4.22099ZM29.3344 4.71808C29.8745 4.17805 30.6069 3.87466 31.3706 3.87466V0.125338C29.6125 0.125338 27.9264 0.823742 26.6833 2.06691L29.3344 4.71808ZM10.2949 23.7576L29.3344 4.71808L26.6833 2.06691L7.64373 21.1064L10.2949 23.7576ZM10.3874 23.5943C10.3719 23.6561 10.34 23.7126 10.2949 23.7576L7.64373 21.1065C7.20827 21.5419 6.89935 22.0875 6.74998 22.685L10.3874 23.5943ZM8.8642 29.687L10.3874 23.5943L6.74998 22.685L5.22682 28.7776L8.8642 29.687ZM8.77174 29.3532C8.85905 29.4405 8.89414 29.5672 8.8642 29.687L5.22682 28.7776C4.93735 29.9355 5.27662 31.1604 6.12057 32.0044L8.77174 29.3532ZM8.43794 29.2607C8.55773 29.2308 8.68444 29.2659 8.77174 29.3532L6.12057 32.0043C6.96452 32.8483 8.1894 33.1876 9.34729 32.8981L8.43794 29.2607ZM14.5306 27.7376L8.43794 29.2607L9.34729 32.8981L15.4399 31.3749L14.5306 27.7376ZM14.3673 27.83C14.4123 27.785 14.4688 27.753 14.5306 27.7376L15.4399 31.3749C16.0374 31.2256 16.583 30.9166 17.0185 30.4812L14.3673 27.83ZM33.4068 8.79048L14.3673 27.83L17.0185 30.4812L36.058 11.4416L33.4068 8.79048ZM34.0311 7.85626C33.8863 8.20563 33.6742 8.52308 33.4068 8.79048L36.058 11.4416C36.6736 10.8261 37.1618 10.0953 37.495 9.29107L34.0311 7.85626ZM34.2503 6.75428C34.2503 7.13243 34.1758 7.50689 34.0311 7.85626L37.495 9.29106C37.8281 8.48681 37.9996 7.62481 37.9996 6.75428H34.2503ZM34.0311 5.6523C34.1758 6.00167 34.2503 6.37612 34.2503 6.75428H37.9996C37.9996 5.88375 37.8281 5.02175 37.495 4.21749L34.0311 5.6523ZM33.4068 4.71808C33.6742 4.98548 33.8863 5.30292 34.0311 5.6523L37.495 4.21749C37.1618 3.41323 36.6736 2.68246 36.058 2.06691L33.4068 4.71808ZM32.4726 4.09386C32.822 4.23857 33.1394 4.45068 33.4068 4.71808L36.058 2.06691C35.4425 1.45136 34.7117 0.963072 33.9074 0.629936L32.4726 4.09386ZM31.3706 3.87466C31.7488 3.87466 32.1233 3.94915 32.4726 4.09386L33.9074 0.629937C33.1032 0.2968 32.2412 0.125338 31.3706 0.125338V3.87466ZM22.5827 29.6019C22.5827 29.796 22.4254 29.9534 22.2312 29.9534V26.2041C20.3547 26.2041 18.8334 27.7253 18.8334 29.6019H22.5827ZM22.2312 29.2504C22.4254 29.2504 22.5827 29.4077 22.5827 29.6019H18.8334C18.8334 31.4784 20.3547 32.9997 22.2312 32.9997V29.2504ZM35.9397 29.2504H22.2312V32.9997H35.9397V29.2504ZM35.5882 29.6019C35.5882 29.4077 35.7456 29.2504 35.9397 29.2504V32.9997C37.8163 32.9997 39.3375 31.4784 39.3375 29.6019H35.5882ZM35.9397 29.9534C35.7456 29.9534 35.5882 29.796 35.5882 29.6019H39.3375C39.3375 27.7253 37.8163 26.2041 35.9397 26.2041V29.9534ZM22.2312 29.9534H35.9397V26.2041H22.2312V29.9534Z" fill="#0D2734" mask="url(#path-4-outside-1_1295_2729)"/>
</g>
<defs>
<clipPath id="clip0_1295_2729">
<rect width="45" height="47" fill="white"/>
</clipPath>
</defs>
</svg>
