<svg width="54" height="51" viewBox="0 0 54 51" fill="none" xmlns="http://www.w3.org/2000/svg">
<circle cx="27.5" cy="25.5" r="23.5" stroke="#FAFAFA" stroke-width="2"/>
<ellipse cx="27" cy="25.5" rx="10" ry="23.5" stroke="#FAFAFA" stroke-width="2"/>
<rect width="54" height="21" transform="translate(0 16)" fill="#0D2734"/>
<path d="M4.36636 32.8L0.817763 20.3981H3.68207L5.73493 29.0153H5.83787L8.10268 20.3981H10.5552L12.814 29.0335H12.923L14.9758 20.3981H17.8401L14.2915 32.8H11.736L9.37436 24.6916H9.27747L6.92183 32.8H4.36636ZM22.0351 32.8L18.4866 20.3981H21.3509L23.4037 29.0153H23.5067L25.7715 20.3981H28.224L30.4827 29.0335H30.5917L32.6446 20.3981H35.5089L31.9603 32.8H29.4048L27.0431 24.6916H26.9463L24.5906 32.8H22.0351ZM39.7039 32.8L36.1553 20.3981H39.0197L41.0725 29.0153H41.1755L43.4403 20.3981H45.8928L48.1515 29.0335H48.2605L50.3134 20.3981H53.1777L49.6291 32.8H47.0736L44.7119 24.6916H44.615L42.2594 32.8H39.7039Z" fill="white"/>
</svg>
